<svg xmlns="http://www.w3.org/2000/svg" viewBox="0 0 24 38"><path d="M22 26.6l-2.9-11.3a2.78 2.78 0 00-2.4-2l-.7-.5a6.82 6.82 0 002.2-5 6.9 6.9 0 00-13.8 0 7 7 0 002.2 5.1l-.6.5a2.55 2.55 0 00-2.3 2s-3 11.1-3 11.2v.1a1.58 1.58 0 001 1.9l1.2.4a1.63 1.63 0 001.9-.9l.8-2 .2 12.8h11.3l.2-12.6.7 1.8a1.54 1.54 0 001.5 1 1.09 1.09 0 00.5-.1l1.3-.4a1.85 1.85 0 00.7-2zm-1.2.9l-1.2.4a.61.61 0 01-.7-.3l-2.5-6.6-.2 16.8h-9.4L6.6 21l-2.7 6.7a.52.52 0 01-.66.31l-1.1-.4a.52.52 0 01-.31-.66l3.1-11.3a1.69 1.69 0 011.5-1.3h.2l1-.9h2.3a5.9 5.9 0 113.2 0h2.3l1.1.9h.2a1.71 1.71 0 011.6 1.2l2.9 11.3a.84.84 0 01-.4.7z" fill="#333" fill-opacity=".2"/>&quot;</svg>